<svg version="1.1" id="Capa_1" xmlns="http://www.w3.org/2000/svg" xmlns:xlink="http://www.w3.org/1999/xlink" x="0px" y="0px" viewBox="0 0 512 512" style="enable-background:new 0 0 512 512;" xml:space="preserve">
<rect x="150" y="367" style="fill:#9A4C00;" width="30" height="101"></rect>
<rect x="270" y="367" style="fill:#703700;" width="30" height="101"></rect>
<path style="fill:#FF4F19;" d="M450,382H0V82h450V382z"></path>
<rect x="225" y="82" style="fill:#FF3200;" width="225" height="300"></rect>
<path style="fill:#84CAFF;" d="M400,332H50V132h350V332z"></path>
<rect x="120" y="453" style="fill:#FF4F19;" width="210" height="30"></rect>
<rect x="225" y="132" style="fill:#00A6FF;" width="175" height="200"></rect>
<rect x="225" y="453" style="fill:#FF3200;" width="105" height="30"></rect>
<path style="fill:#FFF5CB;" d="M252,287.908V29h260v190H327.799L252,287.908z"></path>
<rect x="382" y="29" style="fill:#FFDBA9;" width="130" height="190"></rect>
<g>
	<rect x="305" y="82" style="fill:#B38A65;" width="154" height="30"></rect>
	<rect x="305" y="132" style="fill:#B38A65;" width="154" height="30"></rect>
</g>
<g>
	<rect x="382" y="82" style="fill:#A17852;" width="77" height="30"></rect>
	<rect x="382" y="132" style="fill:#A17852;" width="77" height="30"></rect>
</g>
<g>
</g>
<g>
</g>
<g>
</g>
<g>
</g>
<g>
</g>
<g>
</g>
<g>
</g>
<g>
</g>
<g>
</g>
<g>
</g>
<g>
</g>
<g>
</g>
<g>
</g>
<g>
</g>
<g>
</g>
</svg>