<svg version="1.1" id="Layer_1" xmlns="http://www.w3.org/2000/svg" xmlns:xlink="http://www.w3.org/1999/xlink" x="0px" y="0px" viewBox="0 0 511.999 511.999" style="enable-background:new 0 0 511.999 511.999;" xml:space="preserve">
<path style="fill:#272F37;" d="M0.878,216.33L0.878,216.33c10.202,41.396,67.679,48.818,68.408,196.926
	c0.008,1.572,1.275,2.854,2.848,2.854c3.751,0,9.49,0,12.908,0c1.577,0,2.844-1.279,2.844-2.854V305.028l0,0
	c0-19.654,21.302-25.004,37.207-20.406l7.339,2.122L75.216,180.007L0.878,216.33z"></path>
<path style="opacity:0.25;enable-background:new    ;" d="M75.215,180.007L0.878,216.33l0,0c2.192,8.894,6.569,16.219,12.094,23.709
	l7.575,3.208c27.813,11.778,54.299,26.163,79.152,42.876c7.431-3.586,17.138-3.888,25.395-1.501l7.339,2.122L75.215,180.007z"></path>
<path style="fill:#DE2A4E;" d="M493.642,407.807c13.926-1.701,22.241-16.382,16.539-29.2l0,0
	c-3.884-8.732-10.979-15.635-19.812-19.279l-30.916-12.756c-41.787-17.24-85.08-30.576-129.325-39.836l0,0
	c-15.807-3.308-30.19-11.457-41.153-23.315l0,0C218.02,206.672,133.672,143.499,40.066,96.997l0,0
	c-5.001-2.484-11.073-0.667-13.887,4.157l0,0C5.884,135.946-2.968,176.235,0.878,216.33l0,0l33.616,14.237
	c79.137,33.515,147.596,88.042,197.961,157.679l0,0c12.658,17.501,32.946,27.866,54.545,27.866h118.389
	C439.72,416.111,493.642,407.807,493.642,407.807z"></path>
<path style="opacity:0.15;fill:#FFFFFF;enable-background:new    ;" d="M490.369,359.327l-30.916-12.756
	c-14.974-6.178-30.146-11.846-45.481-17.014c1.387,32.091,27.834,57.685,60.268,57.685c12.948,0,24.932-4.092,34.761-11.034
	C504.945,368.617,498.377,362.63,490.369,359.327z"></path>
<path style="fill:#272F37;" d="M239.121,396.073c12.547,12.707,29.741,20.038,47.88,20.038H405.39
	c34.33,0,88.253-8.305,88.253-8.305c7.503-0.916,13.372-5.603,16.303-11.734H239.121V396.073z"></path>
<path style="fill:#B7B9BC;" d="M87.885,396.073H69.293v17.183c0,1.577,1.279,2.854,2.854,2.854h12.884
	c1.577,0,2.854-1.278,2.854-2.854C87.885,413.256,87.885,396.073,87.885,396.073z"></path>
<path style="opacity:0.25;enable-background:new    ;" d="M330.127,306.735L330.127,306.735
	c-15.807-3.308-30.19-11.457-41.153-23.315l0,0c-44.323-47.941-93.87-90.584-147.637-127.176
	c17.463,20.68,39.612,48.169,67.768,84.584c95.022,122.895,140.638,93.774,172.174,78.559
	C364.394,314.562,347.335,310.336,330.127,306.735z"></path>
<g>
</g>
<g>
</g>
<g>
</g>
<g>
</g>
<g>
</g>
<g>
</g>
<g>
</g>
<g>
</g>
<g>
</g>
<g>
</g>
<g>
</g>
<g>
</g>
<g>
</g>
<g>
</g>
<g>
</g>
</svg>