<svg version="1.1" id="Capa_1" xmlns="http://www.w3.org/2000/svg" xmlns:xlink="http://www.w3.org/1999/xlink" x="0px" y="0px" viewBox="0 0 512 512" style="enable-background:new 0 0 512 512;" xml:space="preserve">
<path style="fill:#ED5729;" d="M410.498,0H218.965c-1.821,0-3.297,1.476-3.297,3.297v54.649h198.128V3.297
	C413.795,1.476,412.319,0,410.498,0z"></path>
<path style="fill:#FF6D3A;" d="M437.93,490.98H191.532V36.772c0-2.824,2.289-5.113,5.113-5.113h236.173
	c2.824,0,5.113,2.289,5.113,5.113V490.98H437.93z"></path>
<path style="fill:#ED5729;" d="M432.818,31.66h-46.209c2.824,0,5.113,2.289,5.113,5.113V490.98h46.209V36.772
	C437.93,33.949,435.641,31.66,432.818,31.66z"></path>
<g>
	<path style="fill:#FFFFFF;" d="M262.141,129.529h-36.289c-0.834,0-1.51-0.676-1.51-1.51v-50.37c0-0.834,0.676-1.51,1.51-1.51
		h36.289c0.834,0,1.51,0.676,1.51,1.51v50.37C263.651,128.853,262.975,129.529,262.141,129.529z"></path>
	<path style="fill:#FFFFFF;" d="M332.875,129.529h-36.289c-0.834,0-1.51-0.676-1.51-1.51v-50.37c0-0.834,0.676-1.51,1.51-1.51
		h36.289c0.834,0,1.51,0.676,1.51,1.51v50.37C334.386,128.853,333.71,129.529,332.875,129.529z"></path>
	<path style="fill:#FFFFFF;" d="M403.61,129.529h-36.289c-0.834,0-1.51-0.676-1.51-1.51v-50.37c0-0.834,0.676-1.51,1.51-1.51h36.289
		c0.834,0,1.51,0.676,1.51,1.51v50.37C405.121,128.853,404.444,129.529,403.61,129.529z"></path>
	<path style="fill:#FFFFFF;" d="M262.141,233.733h-36.289c-0.834,0-1.51-0.676-1.51-1.51v-50.37c0-0.834,0.676-1.51,1.51-1.51
		h36.289c0.834,0,1.51,0.676,1.51,1.51v50.37C263.651,233.057,262.975,233.733,262.141,233.733z"></path>
	<path style="fill:#FFFFFF;" d="M332.875,233.733h-36.289c-0.834,0-1.51-0.676-1.51-1.51v-50.37c0-0.834,0.676-1.51,1.51-1.51
		h36.289c0.834,0,1.51,0.676,1.51,1.51v50.37C334.386,233.057,333.71,233.733,332.875,233.733z"></path>
	<path style="fill:#FFFFFF;" d="M403.61,233.733h-36.289c-0.834,0-1.51-0.676-1.51-1.51v-50.37c0-0.834,0.676-1.51,1.51-1.51h36.289
		c0.834,0,1.51,0.676,1.51,1.51v50.37C405.121,233.057,404.444,233.733,403.61,233.733z"></path>
	<path style="fill:#FFFFFF;" d="M262.141,337.937h-36.289c-0.834,0-1.51-0.676-1.51-1.51v-50.37c0-0.834,0.676-1.51,1.51-1.51
		h36.289c0.834,0,1.51,0.676,1.51,1.51v50.37C263.651,337.261,262.975,337.937,262.141,337.937z"></path>
	<path style="fill:#FFFFFF;" d="M332.875,337.937h-36.289c-0.834,0-1.51-0.676-1.51-1.51v-50.37c0-0.834,0.676-1.51,1.51-1.51
		h36.289c0.834,0,1.51,0.676,1.51,1.51v50.37C334.386,337.261,333.71,337.937,332.875,337.937z"></path>
	<path style="fill:#FFFFFF;" d="M403.61,337.937h-36.289c-0.834,0-1.51-0.676-1.51-1.51v-50.37c0-0.834,0.676-1.51,1.51-1.51h36.289
		c0.834,0,1.51,0.676,1.51,1.51v50.37C405.121,337.261,404.444,337.937,403.61,337.937z"></path>
	<rect x="295.08" y="388.75" style="fill:#FFFFFF;" width="39.31" height="53.39"></rect>
	<path style="fill:#FFFFFF;" d="M403.61,442.141h-36.289c-0.834,0-1.51-0.676-1.51-1.51v-50.37c0-0.834,0.676-1.51,1.51-1.51h36.289
		c0.834,0,1.51,0.676,1.51,1.51v50.37C405.121,441.465,404.444,442.141,403.61,442.141z"></path>
</g>
<rect x="86.35" y="278.95" style="fill:#FFB125;" width="32.16" height="48"></rect>
<path style="fill:#FFB123;" d="M120.344,283.77H84.513c-2.513,0-4.55-2.037-4.55-4.55v-11.959c0-2.513,2.037-4.55,4.55-4.55h35.831
	c2.513,0,4.55,2.037,4.55,4.55v11.959C124.894,281.733,122.857,283.77,120.344,283.77z"></path>
<polygon style="fill:#61AFF6;" points="263.603,341.887 168.928,278.908 74.253,341.887 74.253,491.18 263.645,491.18 
	263.645,341.887 "></polygon>
<polygon style="fill:#55A2F0;" points="263.603,341.887 168.928,278.908 145.74,294.333 217.227,341.887 217.27,341.887 
	217.27,491.181 263.646,491.181 263.646,341.887 "></polygon>
<path style="fill:#FF901D;" d="M59.748,362.548l107.495-71.506c1.034-0.688,2.379-0.688,3.412,0l107.495,71.506
	c5.688,3.784,13.398,1.847,16.622-4.176l0,0c2.817-5.261,1.174-11.801-3.795-15.106l-120.321-80.039
	c-1.034-0.688-2.379-0.688-3.412,0L46.922,343.266c-4.969,3.305-6.612,9.845-3.795,15.106l0,0
	C46.351,364.395,54.061,366.332,59.748,362.548z"></path>
<path style="fill:#FFB125;" d="M149.149,393.405h-49.03c-1.788,0-3.238,1.45-3.238,3.238v94.591h55.507v-94.591
	C152.387,394.855,150.938,393.405,149.149,393.405z"></path>
<path style="fill:#E1EFFB;" d="M238.666,442.141h-63.17v-35.788c0-1.196,0.97-2.166,2.166-2.166H236.5
	c1.196,0,2.166,0.97,2.166,2.166V442.141z"></path>
<path style="fill:#CCDFED;" d="M236.5,404.187h-29.419v37.954h31.585v-35.788C238.666,405.157,237.697,404.187,236.5,404.187z"></path>
<path style="fill:#B6FA4D;" d="M372.842,490.812c0.271-15.308,11.957-27.828,26.912-29.403
	c6.939-11.091,19.256-18.472,33.304-18.472c21.686,0,39.266,17.58,39.266,39.266c0,2.959-0.338,5.837-0.958,8.609H372.842z"></path>
<path style="fill:#FF901D;" d="M149.149,393.405h-24.515v97.829h27.753v-94.591C152.387,394.855,150.938,393.405,149.149,393.405z"></path>
<path style="fill:#77DD00;" d="M484.142,484.809H27.858c-7.509,0-13.595,6.087-13.595,13.595l0,0
	c0,7.509,6.087,13.595,13.595,13.595h456.283c7.509,0,13.595-6.087,13.595-13.595l0,0
	C497.737,490.896,491.65,484.809,484.142,484.809z"></path>
<path style="fill:#6EC102;" d="M497.592,500.288L497.592,500.288c0.086-0.618,0.145-1.243,0.145-1.883
	c0-0.692-0.071-1.366-0.173-2.029v-0.034c-0.015-0.098-0.041-0.192-0.058-0.289c-0.076-0.423-0.167-0.84-0.281-1.248
	c-0.082-0.298-0.165-0.595-0.266-0.885c-0.056-0.16-0.124-0.313-0.186-0.47c-0.114-0.291-0.235-0.579-0.368-0.86
	c-0.03-0.062-0.051-0.129-0.081-0.191c-0.002,0.005-0.005,0.009-0.007,0.013c-2.213-4.499-6.822-7.603-12.176-7.603h-32.688
	l0.016,2.241c0.049,7.131-5.718,12.939-12.849,12.939H27.858c-5.35,0-9.964-3.098-12.183-7.59c-1.119,2.265-1.646,4.874-1.314,7.641
	C15.189,506.936,21.275,512,28.22,512h423.422h32.5c0.45,0,0.895-0.024,1.334-0.067c0.151-0.015,0.297-0.043,0.446-0.062
	c0.284-0.037,0.569-0.075,0.847-0.13c0.18-0.035,0.354-0.083,0.531-0.125c0.24-0.057,0.481-0.114,0.716-0.184
	c0.191-0.057,0.377-0.123,0.564-0.188c0.212-0.073,0.423-0.147,0.629-0.23c0.197-0.079,0.39-0.166,0.582-0.254
	c0.185-0.085,0.368-0.172,0.549-0.264c0.203-0.104,0.401-0.214,0.597-0.327c0.156-0.091,0.311-0.184,0.463-0.281
	c0.208-0.132,0.413-0.268,0.613-0.41c0.125-0.089,0.246-0.182,0.367-0.275c0.216-0.165,0.428-0.332,0.633-0.509
	c0.087-0.076,0.171-0.155,0.256-0.233c0.227-0.206,0.45-0.415,0.663-0.636c0.037-0.039,0.071-0.08,0.108-0.119
	c1.879-1.999,3.154-4.563,3.551-7.414C497.591,500.289,497.591,500.289,497.592,500.288z"></path>
<g>
</g>
<g>
</g>
<g>
</g>
<g>
</g>
<g>
</g>
<g>
</g>
<g>
</g>
<g>
</g>
<g>
</g>
<g>
</g>
<g>
</g>
<g>
</g>
<g>
</g>
<g>
</g>
<g>
</g>
</svg>