<svg version="1.1" id="Capa_1" xmlns="http://www.w3.org/2000/svg" xmlns:xlink="http://www.w3.org/1999/xlink" x="0px" y="0px" viewBox="0 0 512.011 512.011" style="enable-background:new 0 0 512.011 512.011;" xml:space="preserve">
<g>
	<path style="fill:#40596B;" d="M134.336,423.877H99.104c-11.787,0-21.333-9.547-21.333-21.333v-31.477h77.899v31.477
		C155.669,414.331,146.123,423.877,134.336,423.877"></path>
	<path style="fill:#40596B;" d="M419.285,423.877h-35.232c-11.787,0-21.333-9.547-21.333-21.333v-31.477h77.899v31.477
		C440.619,414.331,431.061,423.877,419.285,423.877"></path>
	<path style="fill:#40596B;" d="M71.339,225.435H22.848C10.219,225.435,0,215.216,0,202.597c0-12.608,10.219-22.837,22.848-22.837
		h25.664c12.619,0,22.837,10.229,22.837,22.837v22.837H71.339z"></path>
	<path style="fill:#40596B;" d="M440.661,225.435h48.501c12.629,0,22.848-10.219,22.848-22.837
		c0-12.608-10.219-22.837-22.848-22.837h-25.653c-12.619,0-22.848,10.229-22.848,22.837L440.661,225.435L440.661,225.435z"></path>
</g>
<path style="fill:#FF7058;" d="M356.395,88.133H155.616c-26.315,0-49.76,16.597-58.517,41.408l-28.32,80.309h374.453l-28.32-80.309
	C406.155,104.731,382.709,88.133,356.395,88.133"></path>
<path style="fill:#F2F2F2;" d="M103.563,207.141l20.107-62.987c6.251-19.584,23.072-32.736,41.856-32.736h180.96
	c18.784,0,35.605,13.152,41.856,32.736l20.096,62.987H103.563z"></path>
<path style="fill:#FF7058;" d="M415.307,376.965H96.704c-33.771,0-61.152-27.381-61.152-61.141v-21.899
	c0-33.771,14.571-86.773,48.341-86.773h344.213c33.771,0,48.341,53.003,48.341,86.773v21.899
	C476.448,349.584,449.077,376.965,415.307,376.965"></path>
<g>
	<path style="fill:#FFFFFF;" d="M432.896,292.059c0,21.003-17.024,38.027-38.016,38.027c-20.992,0-38.016-17.024-38.016-38.027
		c0-21.003,17.024-38.027,38.016-38.027C415.872,254.032,432.896,271.056,432.896,292.059"></path>
	<path style="fill:#FFFFFF;" d="M155.147,292.059c0,21.003-17.024,38.027-38.016,38.027s-38.016-17.024-38.016-38.027
		c0-21.003,17.024-38.027,38.016-38.027S155.147,271.056,155.147,292.059"></path>
</g>
<g>
</g>
<g>
</g>
<g>
</g>
<g>
</g>
<g>
</g>
<g>
</g>
<g>
</g>
<g>
</g>
<g>
</g>
<g>
</g>
<g>
</g>
<g>
</g>
<g>
</g>
<g>
</g>
<g>
</g>
</svg>